<svg id="icon-group" viewBox="0 0 1024 1024" width="100%" height="100%"><path d="M307.2 307.2v68.27h409.6V307.2H307.2z m0-68.27h409.6q30.93 0 49.6 18.67t18.67 49.6v68.27q0 30.93-18.67 49.59-18.67 18.67-49.6 18.67H307.2q-30.93 0-49.6-18.67t-18.67-49.59V307.2q0-30.93 18.67-49.6t49.6-18.67z m0 341.34v68.26h409.6v-68.26H307.2z m0-68.27h409.6q30.93 0 49.6 18.66 18.67 18.67 18.67 49.61v68.26q0 30.94-18.67 49.61-18.67 18.66-49.6 18.66H307.2q-30.93 0-49.6-18.66t-18.67-49.61v-68.26q0-30.94 18.67-49.61Q276.27 512 307.2 512zM102.4 204.8q-42.67-1.07-72-30.4T0 102.4q1.07-42.67 30.4-72t72-30.4q42.67 1.07 72 30.4t30.4 72q-1.07 42.67-30.4 72t-72 30.4z m0-68.27q16 0 25.06-9.06 9.06-9.06 9.06-25.06 0-16-9.06-25.06-9.06-9.07-25.06-9.07-16 0-25.06 9.07-9.07 9.06-9.07 25.06 0 16 9.07 25.06 9.06 9.06 25.06 9.06z m819.2 68.27q-42.67-1.07-72-30.4t-30.4-72q1.07-42.67 30.4-72t72-30.4q42.67 1.07 72 30.4t30.4 72q-1.07 42.67-30.4 72t-72 30.4z m0-68.27q16 0 25.06-9.06 9.07-9.06 9.07-25.06 0-16-9.07-25.06-9.06-9.07-25.06-9.07-16 0-25.06 9.07-9.07 9.06-9.07 25.06 0 16 9.07 25.06 9.06 9.06 25.06 9.06zM102.4 1024q-42.67-1.07-72-30.4T0 921.6q1.07-42.67 30.4-72t72-30.4q42.67 1.07 72 30.4t30.4 72q-1.07 42.67-30.4 72t-72 30.4z m0-68.27q16 0 25.06-9.07 9.06-9.06 9.06-25.06 0-16-9.06-25.06-9.06-9.07-25.06-9.07-16 0-25.06 9.07-9.07 9.06-9.07 25.06 0 16 9.07 25.06 9.06 9.07 25.06 9.07zM921.6 1024q-42.67-1.07-72-30.4t-30.4-72q1.07-42.67 30.4-72t72-30.4q42.67 1.07 72 30.4t30.4 72q-1.07 42.67-30.4 72t-72 30.4z m0-68.27q16 0 25.06-9.07 9.07-9.06 9.07-25.06 0-16-9.07-25.06-9.06-9.07-25.06-9.07-16 0-25.06 9.07-9.07 9.06-9.07 25.06 0 16 9.07 25.06 9.06 9.07 25.06 9.07z m-676.27-819.2V68.27h68.27v68.26h-68.27z m136.54 0V68.27h68.26v68.26h-68.26z m136.53 0V68.27h68.27v68.26H518.4z m136.53 0V68.27h68.27v68.26h-68.27zM68.27 273.07h68.26v68.26H68.27v-68.26z m0 136.53h68.26v68.27H68.27V409.6z m0 136.53h68.26v68.27H68.27v-68.27z m0 136.54h68.26v68.26H68.27v-68.26z m819.2-409.6h68.26v68.26h-68.26v-68.26z m0 136.53h68.26v68.27h-68.26V409.6z m0 136.53h68.26v68.27h-68.26v-68.27z m0 136.54h68.26v68.26h-68.26v-68.26zM245.33 955.73v-68.26h68.27v68.26h-68.27z m136.54 0v-68.26h68.26v68.26h-68.26z m136.53 0v-68.26h68.27v68.26H518.4z m136.53 0v-68.26h68.27v68.26h-68.27z"></path></svg>
