<?xml version="1.0" standalone="no"?><!DOCTYPE svg PUBLIC "-//W3C//DTD SVG 1.1//EN" "http://www.w3.org/Graphics/SVG/1.1/DTD/svg11.dtd"><svg class="icon" width="32px" height="32.00px" viewBox="0 0 1024 1024" version="1.1" xmlns="http://www.w3.org/2000/svg"><path d="M806.857143 511.428571q0-15.428571-10.285714-25.714285L589.714286 278.857143l-52-52q-10.285714-10.285714-25.714286-10.285714t-25.714286 10.285714l-52 52-206.857143 206.857143q-10.285714 10.285714-10.285714 25.714285t10.285714 25.714286l52 52q10.285714 10.285714 25.714286 10.285714t25.714286-10.285714l108-108v286.857143q0 14.857143 10.857143 25.714286t25.714285 10.857143h73.142858q14.857143 0 25.714285-10.857143t10.857143-25.714286V481.142857l108 108q10.857143 10.857143 25.714286 10.857143t25.714286-10.857143l52-52q10.285714-10.285714 10.285714-25.714286z m144 0.571429q0 119.428571-58.857143 220.285714T732.285714 892 512 950.857143t-220.285714-58.857143T132 732.285714 73.142857 512t58.857143-220.285714T291.714286 132 512 73.142857t220.285714 58.857143T892 291.714286 950.857143 512z" fill="#8a8a8a" /></svg>