<?xml version="1.0" standalone="no"?><!DOCTYPE svg PUBLIC "-//W3C//DTD SVG 1.1//EN" "http://www.w3.org/Graphics/SVG/1.1/DTD/svg11.dtd"><svg class="icon" width="32px" height="32.00px" viewBox="0 0 1024 1024" version="1.1" xmlns="http://www.w3.org/2000/svg"><path d="M883.419429 599.990857a73.508571 73.508571 0 0 1 26.843428 99.986286l-36.571428 62.866286a73.508571 73.508571 0 0 1-99.986286 26.843428L621.714286 702.244571v175.433143c0 40.009143-33.133714 73.142857-73.142857 73.142857h-73.142858c-40.009143 0-73.142857-33.133714-73.142857-73.142857v-175.433143l-151.990857 87.442286a73.508571 73.508571 0 0 1-99.986286-26.843428l-36.571428-62.866286a73.508571 73.508571 0 0 1 26.843428-99.986286L292.571429 512l-151.990858-87.990857A73.508571 73.508571 0 0 1 113.737143 324.022857l36.571428-62.866286a73.508571 73.508571 0 0 1 99.986286-26.843428L402.285714 321.755429V146.322286c0-40.009143 33.133714-73.142857 73.142857-73.142857h73.142858c40.009143 0 73.142857 33.133714 73.142857 73.142857v175.433143l151.990857-87.442286a73.508571 73.508571 0 0 1 99.986286 26.843428l36.571428 62.866286a73.508571 73.508571 0 0 1-26.843428 99.986286L731.428571 512z" fill="#8a8a8a" /></svg>