<?xml version="1.0" encoding="UTF-8" standalone="no"?>
<svg width="64px" height="50px" viewBox="0 0 64 50" version="1.1" xmlns="http://www.w3.org/2000/svg" xmlns:xlink="http://www.w3.org/1999/xlink" xmlns:sketch="http://www.bohemiancoding.com/sketch/ns">
    <!-- Generator: Sketch 3.0.3 (7891) - http://www.bohemiancoding.com/sketch -->
    <title>Box</title>
    <desc>Created with Sketch.</desc>
    <defs></defs>
    <g id="Page-1" stroke="none" stroke-width="1" fill="none" fill-rule="evenodd" sketch:type="MSPage">
        <g id="Box" sketch:type="MSLayerGroup" transform="translate(1.000000, 1.000000)" stroke="#6B6C6E" stroke-width="2">
            <path d="M2,14 C0.9,14 0,13.1 0,12 L0,2 C0,0.9 0.9,0 2,0 L60,0 C61.1,0 62,0.9 62,2 L62,12 C62,13.1 61.1,14 60,14 L2,14 L2,14 Z" id="Shape" sketch:type="MSShapeGroup"></path>
            <path d="M60,14 L60,46 C60,47.1 59.1,48 58,48 L4,48 C2.9,48 2,47.1 2,46 L2,14" id="Shape" sketch:type="MSShapeGroup"></path>
            <path d="M38.9,20.1 C38.9,23.4 39.7,26 31,26 C22.3,26 23.1,23.4 23.1,20.1" id="Shape" sketch:type="MSShapeGroup"></path>
        </g>
    </g>
</svg>
