<svg id="icon-copy" viewBox="0 0 1024 1024" width="100%" height="100%"><path d="M990.08 1017.64h-549.1q-10.6 0-18.55-8.48-7.95-8.48-9.01-19.08V373.13q1.06-10.6 10.07-18.55 9.01-7.95 23.85-9.01h373.13L1024 549.1v448.4q-5.3 5.3-14.31 12.19-9.01 6.89-19.61 7.95zM814.11 407.06v135.68H949.8L814.11 407.06zM949.8 610.58H746.27V407.06H474.9V949.8h474.9V610.58z m-610.59 67.85H67.84V67.84h271.37v203.53h271.37v-67.84L407.06 0H33.92Q18.02 0 9.01 8.48T0 27.56v684.79q0 10.6 8.48 18.55 8.48 7.95 19.08 9.01h311.65v-61.48z m67.85-610.59l135.68 135.69H407.06V67.84z"></path></svg>
