<svg id="icon-delete" viewBox="0 0 1024 1024" width="100%" height="100%"><path d="M828.55 311.65q-17.81 0-30.05 11.13-12.25 11.13-14.47 28.94l-52.32 529.81h-95.72l16.7-461.91q0-14.47-10.02-25.05-10.02-10.57-25.05-11.13-15.02-0.56-25.6 8.91-10.58 9.46-10.58 25.04l-16.69 464.14H459.01l-15.58-465.25q-1.12-15.58-11.69-25.04-10.57-9.47-25.6-8.91-15.03 0.56-24.49 11.13-9.46 10.57-9.46 25.04l15.58 463.03h-94.6l-52.32-529.81q-2.22-17.81-14.47-28.94-12.24-11.13-30.05-11.13h-3.34q-15.58 2.23-25.04 13.36-9.46 11.13-8.35 26.71l60.1 599.93q3.34 31.17 25.6 51.21 22.26 20.03 53.43 21.14h426.3q31.16-1.11 53.42-21.14t26.72-51.21l58.99-603.27q0-15.58-10.57-26.15-10.58-10.58-25.05-10.58z m107.96-71.23l-7.79-61.22q-5.56-35.62-31.72-57.88-26.15-22.26-61.77-23.37h-170.3l-3.34-32.28q-2.22-28.94-22.25-46.75Q619.3 1.11 590.36 0H433.42Q404.48 1.11 385 18.92q-19.48 17.81-22.82 46.75l-2.22 32.28H188.55q-35.62 1.11-61.22 23.37T96.17 179.2l-8.91 63.44q0 7.79 5.01 12.8 5.01 5.01 12.8 5.01h816.98q6.67-1.11 11.13-6.68 4.46-5.56 3.34-13.35zM422.29 97.95l2.22-27.83q1.12-6.68 8.91-7.79h158.05q6.68 1.11 8.91 7.79l1.11 27.83h-179.2z"></path></svg>
