<?xml version="1.0" standalone="no"?><!DOCTYPE svg PUBLIC "-//W3C//DTD SVG 1.1//EN" "http://www.w3.org/Graphics/SVG/1.1/DTD/svg11.dtd"><svg class="icon" width="32px" height="32.00px" viewBox="0 0 1024 1024" version="1.1" xmlns="http://www.w3.org/2000/svg"><path d="M512 73.142857q119.428571 0 220.285714 58.857143T892 291.714286 950.857143 512t-58.857143 220.285714-159.714286 159.714286T512 950.857143t-220.285714-58.857143T132 732.285714 73.142857 512t58.857143-220.285714T291.714286 132 512 73.142857z m73.142857 712.571429v-108.571429q0-8-5.142857-13.428571t-12.571429-5.428572H457.714286q-7.428571 0-13.142857 5.714286t-5.714286 13.142857v108.571429q0 7.428571 5.714286 13.142857t13.142857 5.714286h109.714285q7.428571 0 12.571429-5.428572t5.142857-13.428571z m-1.142857-196.571429l10.285714-354.857143q0-6.857143-5.714285-10.285714-5.714286-4.571429-13.714286-4.571429H449.142857q-8 0-13.714286 4.571429-5.714286 3.428571-5.714285 10.285714l9.714285 354.857143q0 5.714286 5.714286 10t13.714286 4.285714h105.714286q8 0 13.428571-4.285714T584 589.142857z" fill="#8a8a8a" /></svg>