<svg id="icon-paste" viewBox="0 0 1024 1024" width="100%" height="100%"><path d="M795.99 199.33h-75.02v-62.16h109.31q10.72 0 19.3 8.58 8.57 8.57 8.57 19.29v102.88h-62.16v-68.59zM240.87 898.05h-75.02V199.33h75.02v-62.16H131.56q-10.72 0-19.29 8.58-8.57 8.57-8.57 19.29v760.88q0 10.71 8.57 18.75t19.29 9.11h102.88l6.43-55.73z m411.52-623.7H309.46V137.17h68.58V62.16q1.07-26.8 18.22-43.94Q413.41 1.08 440.2 0.01h75.01q26.8 1.07 43.94 18.21 17.14 17.14 18.22 43.94v75.01h75.02v137.18zM515.21 62.16H440.2v75.01h75.01V62.16z m405.09 938.77V548.69L720.97 342.93H343.75q-16.08 0-25.19 8.57-9.11 8.57-9.11 19.3v623.7q0 10.72 8.57 18.76 8.57 8.04 19.29 9.11H886q15 4.28 24.11-2.68 9.11-6.97 10.18-18.76z m-68.58-438.31H714.54v-151.1l137.18 151.1z m6.43 411.52H371.61V411.52h280.78v212.19h205.76v350.43z"></path></svg>
