<?xml version="1.0" standalone="no"?><!DOCTYPE svg PUBLIC "-//W3C//DTD SVG 1.1//EN" "http://www.w3.org/Graphics/SVG/1.1/DTD/svg11.dtd"><svg class="icon" width="32px" height="32.00px" viewBox="0 0 1024 1024" version="1.1" xmlns="http://www.w3.org/2000/svg"><path d="M246.4 912.64c-17.92 0-32-14.08-32-32V231.68c0-37.12 19.2-71.04 51.84-89.6 32.64-18.56 71.04-18.56 103.68 0L870.4 430.72c32.64 18.56 51.84 51.84 51.84 89.6 0 37.12-19.2 71.04-51.84 89.6l-469.76 271.36c-15.36 8.96-34.56 3.84-43.52-11.52-8.96-15.36-3.84-34.56 11.52-43.52L838.4 554.88c17.92-10.24 19.84-27.52 19.84-33.92 0-7.04-1.92-23.68-19.84-33.92L337.28 197.76c-17.92-10.24-33.28-3.2-39.68 0-5.76 3.2-19.84 13.44-19.84 33.92v648.96c0.64 17.92-14.08 32-31.36 32z" fill="#1afa29" /></svg>