<?xml version="1.0" standalone="no"?><!DOCTYPE svg PUBLIC "-//W3C//DTD SVG 1.1//EN" "http://www.w3.org/Graphics/SVG/1.1/DTD/svg11.dtd"><svg class="icon" width="32px" height="32.00px" viewBox="0 0 1024 1024" version="1.1" xmlns="http://www.w3.org/2000/svg"><path d="M621.714286 717.677714l0 137.142857q0 9.142857-6.875429 16.018286t-16.018286 6.875429l-137.142857 0q-9.142857 0-16.018286-6.875429t-6.875429-16.018286l0-137.142857q0-9.142857 6.875429-16.018286t16.018286-6.875429l137.142857 0q9.142857 0 16.018286 6.875429t6.875429 16.018286zM802.304 374.857143q0 30.866286-8.850286 57.709714t-19.968 43.739429-31.451429 34.011429-32.841143 24.868571-34.889143 20.260571q-23.405714 13.165714-39.131429 37.156571t-15.725714 38.253714q0 9.728-6.875429 18.578286t-16.018286 8.850286l-137.142857 0q-8.557714 0-14.555429-10.605714t-5.997714-21.430857l0-25.746286q0-47.396571 37.156571-89.453714t81.700571-62.025143q33.718857-15.433143 47.981714-32.036571t14.262857-43.446857q0-23.990857-26.550857-42.276571t-61.44-18.285714q-37.156571 0-61.732571 16.603429-19.968 14.262857-61.147429 65.682286-7.460571 9.142857-17.700571 9.142857-6.875429 0-14.262857-4.534857l-93.696-71.460571q-7.460571-5.705143-8.850286-14.262857t3.145143-16.018286q91.428571-151.990857 265.142857-151.990857 45.714286 0 92.013714 17.700571t83.456 47.396571 60.562286 72.850286 23.405714 90.550857z" fill="#8a8a8a" /></svg>