<?xml version="1.0" standalone="no"?><!DOCTYPE svg PUBLIC "-//W3C//DTD SVG 1.1//EN" "http://www.w3.org/Graphics/SVG/1.1/DTD/svg11.dtd"><svg class="icon" width="32px" height="32.00px" viewBox="0 0 1024 1024" version="1.1" xmlns="http://www.w3.org/2000/svg"><path d="M936.571429 603.428571q0 2.857143-0.571429 4-36.571429 153.142857-153.142857 248.285715T509.714286 950.857143q-83.428571 0-161.428572-31.428572T209.142857 829.714286l-73.714286 73.714285q-10.857143 10.857143-25.714285 10.857143t-25.714286-10.857143-10.857143-25.714285v-256q0-14.857143 10.857143-25.714286t25.714286-10.857143h256q14.857143 0 25.714285 10.857143t10.857143 25.714286-10.857143 25.714285l-78.285714 78.285715q40.571429 37.714286 92 58.285714t106.857143 20.571429q76.571429 0 142.857143-37.142858t106.285714-102.285714q6.285714-9.714286 30.285714-66.857143 4.571429-13.142857 17.142858-13.142857h109.714285q7.428571 0 12.857143 5.428572t5.428572 12.857142z m14.285714-457.142857v256q0 14.857143-10.857143 25.714286t-25.714286 10.857143h-256q-14.857143 0-25.714285-10.857143t-10.857143-25.714286 10.857143-25.714285l78.857142-78.857143q-84.571429-78.285714-199.428571-78.285715-76.571429 0-142.857143 37.142858T262.857143 358.857143q-6.285714 9.714286-30.285714 66.857143-4.571429 13.142857-17.142858 13.142857H101.714286q-7.428571 0-12.857143-5.428572T83.428571 420.571429v-4q37.142857-153.142857 154.285715-248.285715T512 73.142857q83.428571 0 162.285714 31.714286T814.285714 194.285714l74.285715-73.714285q10.857143-10.857143 25.714285-10.857143t25.714286 10.857143 10.857143 25.714285z" fill="#8a8a8a" /></svg>