<svg height="511pt" viewBox="0 -61 511.9997 511" width="511pt" xmlns="http://www.w3.org/2000/svg"><path d="m511.886719 372.609375c-20.136719-164.457031-156.878907-289.667969-321.152344-296.894531v-37.066406c0-28.15625-15.339844-38.148438-28.472656-38.148438-9.566407 0-19.269531 4.851562-28.832031 14.414062l-115.933594 115.933594c-23.328125 23.328125-23.328125 61.285156 0 84.613282l115.933594 115.933593c9.5625 9.5625 19.265624 14.414063 28.832031 14.414063 13.132812 0 28.472656-9.992188 28.472656-38.148438v-39.636718c18.6875-3.648438 37.628906-5.492188 56.464844-5.492188 93.496093 0 182.355469 45.144531 237.699219 120.761719 2.890624 3.945312 7.429687 6.140625 12.109374 6.140625 1.84375 0 3.714844-.34375 5.511719-1.054688 6.347657-2.511718 10.199219-8.992187 9.367188-15.769531zm-115.503907-103.777344c-45.734374-23.746093-97.320312-36.292969-149.183593-36.292969-25.050781 0-50.253907 2.953126-74.914063 8.785157-6.765625 1.601562-11.542968 7.644531-11.542968 14.59375v51.742187c0 3.148438-.3125 5.449219-.667969 7.011719-1.359375-.851563-3.207031-2.257813-5.433594-4.488281l-115.9375-115.929688c-11.632813-11.636718-11.632813-30.5625 0-42.199218l115.933594-115.933594c2.230469-2.226563 4.074219-3.636719 5.4375-4.488282.355469 1.566407.667969 3.863282.667969 7.015626v51.738281c0 8.28125 6.714843 14.996093 14.996093 14.996093 136.75 0 254.96875 89.765626 294.582031 216.1875-22.074218-20.917968-47.035156-38.769531-73.9375-52.738281zm0 0"/></svg>