<svg viewBox="0 0 1024 1024" width="100%" height="100%"><path d="M716.8 238.93H307.2q-30.93 0-49.6 18.67t-18.67 49.6v68.27q0 30.93 18.67 49.59 18.67 18.67 49.6 18.67h409.6q30.93 0 49.6-18.67t18.67-49.59V307.2q0-30.93-18.67-49.6t-49.6-18.67z m0 136.54H307.2V307.2h409.6v68.27z m0 136.53H307.2q-30.93 0-49.6 18.66-18.67 18.67-18.67 49.61v68.26q0 30.94 18.67 49.61 18.67 18.66 49.6 18.66h409.6q30.93 0 49.6-18.66t18.67-49.61v-68.26q0-30.94-18.67-49.61Q747.73 512 716.8 512z m0 136.53H307.2v-68.26h409.6v68.26zM102.4 0q-42.67 1.07-72 30.4T0 102.4q1.07 42.67 30.4 72t72 30.4q42.67-1.07 72-30.4t30.4-72q-1.07-42.67-30.4-72T102.4 0z m0 136.53q-16 0-25.06-9.06-9.07-9.06-9.07-25.06 0-16 9.07-25.06 9.06-9.07 25.06-9.07 16 0 25.06 9.07 9.06 9.06 9.06 25.06 0 16-9.06 25.06-9.06 9.06-25.06 9.06z m819.2 68.27q42.67-1.07 72-30.4t30.4-72q-1.07-42.67-30.4-72T921.6 0q-42.67 1.07-72 30.4t-30.4 72q1.07 42.67 30.4 72t72 30.4z m0-136.53q16 0 25.06 9.07 9.07 9.06 9.07 25.06 0 16-9.07 25.06-9.06 9.06-25.06 9.06-16 0-25.06-9.06-9.07-9.06-9.07-25.06 0-16 9.07-25.06 9.06-9.07 25.06-9.07z m-819.2 716.8q-42.67 1.06-72 30.39Q1.07 844.8 0 887.47q1.07 42.66 30.4 71.99 29.33 29.34 72 30.41 42.67-1.07 72-30.41 29.33-29.33 30.4-71.99-1.07-42.67-30.4-72.01-29.33-29.33-72-30.39z m0 136.53q-16 0-25.06-9.06-9.07-9.07-9.07-25.07t9.07-25.07q9.06-9.07 25.06-9.07 16 0 25.06 9.07 9.06 9.07 9.06 25.07t-9.06 25.07q-9.06 9.06-25.06 9.06z m819.2-136.53q-42.67 1.06-72 30.39-29.33 29.34-30.4 72.01 1.07 42.66 30.4 71.99 29.33 29.34 72 30.41 42.67-1.07 72-30.41 29.33-29.33 30.4-71.99-1.07-42.67-30.4-72.01-29.33-29.33-72-30.39z m0 136.53q-16 0-25.06-9.06-9.07-9.07-9.07-25.07t9.07-25.07q9.06-9.07 25.06-9.07 16 0 25.06 9.07 9.07 9.07 9.07 25.07t-9.07 25.07q-9.06 9.06-25.06 9.06z"></path></svg>
